<mxfile modified="2023-02-08T01:33:20.626Z" host="app.diagrams.net" agent="5.0 (Windows NT 10.0; Win64; x64) AppleWebKit/537.36 (KHTML, like Gecko) Chrome/109.0.0.0 Safari/537.36" etag="Or9feMTSex9qnNNPEUV4" version="20.8.18" type="github">
  <diagram id="Ht1M8jgEwFfnCIfOTk4-" name="Page-1">
    <mxGraphModel dx="2074" dy="1116" grid="1" gridSize="10" guides="1" tooltips="1" connect="1" arrows="1" fold="1" page="1" pageScale="1" pageWidth="819" pageHeight="80" math="0" shadow="0">
      <root>
        <mxCell id="0" />
        <mxCell id="1" parent="0" />
        <mxCell id="S6HyDGeCNXITSf1lsvY5-5" value="us-east-1c" style="sketch=0;outlineConnect=0;gradientColor=none;html=1;whiteSpace=wrap;fontSize=12;fontStyle=0;shape=mxgraph.aws4.group;grIcon=mxgraph.aws4.group_availability_zone;strokeColor=#545B64;fillColor=none;verticalAlign=top;align=left;spacingLeft=30;fontColor=#545B64;dashed=1;movable=1;resizable=1;rotatable=1;deletable=1;editable=1;connectable=1;container=0;" parent="1" vertex="1">
          <mxGeometry x="1520" y="681" width="320" height="399.5" as="geometry" />
        </mxCell>
        <mxCell id="S6HyDGeCNXITSf1lsvY5-4" value="us-east-1a" style="sketch=0;outlineConnect=0;gradientColor=none;html=1;whiteSpace=wrap;fontSize=12;fontStyle=0;shape=mxgraph.aws4.group;grIcon=mxgraph.aws4.group_availability_zone;strokeColor=#545B64;fillColor=none;verticalAlign=top;align=left;spacingLeft=30;fontColor=#545B64;dashed=1;movable=1;resizable=1;rotatable=1;deletable=1;editable=1;connectable=1;container=0;" parent="1" vertex="1">
          <mxGeometry x="1520" y="240" width="320" height="400" as="geometry" />
        </mxCell>
        <mxCell id="-QjtrjUzRDEMRZ5MF8oH-46" value="" style="rounded=0;whiteSpace=wrap;html=1;fillColor=#EAEDED;fontSize=22;fontColor=#FFFFFF;strokeColor=none;labelBackgroundColor=none;" parent="1" vertex="1">
          <mxGeometry x="40" y="1200" width="1920" height="440" as="geometry" />
        </mxCell>
        <mxCell id="-QjtrjUzRDEMRZ5MF8oH-36" value="1" style="rounded=1;whiteSpace=wrap;html=1;fillColor=#007CBD;strokeColor=none;fontColor=#FFFFFF;fontStyle=1;fontSize=22;labelBackgroundColor=none;" parent="1" vertex="1">
          <mxGeometry x="58.5" y="1212.5" width="40" height="38" as="geometry" />
        </mxCell>
        <mxCell id="-QjtrjUzRDEMRZ5MF8oH-47" value="MINUS" style="text;html=1;resizable=0;points=[];autosize=1;align=left;verticalAlign=top;spacingTop=-4;fontSize=30;fontStyle=1;labelBackgroundColor=none;" parent="1" vertex="1">
          <mxGeometry x="80" y="21.5" width="120" height="40" as="geometry" />
        </mxCell>
        <mxCell id="-QjtrjUzRDEMRZ5MF8oH-48" value="First Project" style="text;html=1;resizable=0;points=[];autosize=1;align=left;verticalAlign=top;spacingTop=-4;fontSize=16;labelBackgroundColor=none;" parent="1" vertex="1">
          <mxGeometry x="80" y="71.5" width="110" height="30" as="geometry" />
        </mxCell>
        <mxCell id="SCVMTBWpLvtzJIhz15lM-1" value="" style="line;strokeWidth=2;html=1;fontSize=14;labelBackgroundColor=none;" parent="1" vertex="1">
          <mxGeometry x="40" y="101.5" width="1960" height="10" as="geometry" />
        </mxCell>
        <mxCell id="SCVMTBWpLvtzJIhz15lM-6" value="M-VPC 10.0.0..0/16&lt;br&gt;보안그룹: M-SG-TEST1" style="text;html=1;align=left;verticalAlign=top;spacingTop=-4;fontSize=14;labelBackgroundColor=none;whiteSpace=wrap;" parent="1" vertex="1">
          <mxGeometry x="110" y="1212" width="449" height="118" as="geometry" />
        </mxCell>
        <mxCell id="ZEOZU6cHf9Xsqpg2laXT-5" value="버지니아 북부 리전" style="points=[[0,0],[0.25,0],[0.5,0],[0.75,0],[1,0],[1,0.25],[1,0.5],[1,0.75],[1,1],[0.75,1],[0.5,1],[0.25,1],[0,1],[0,0.75],[0,0.5],[0,0.25]];outlineConnect=0;gradientColor=none;html=1;whiteSpace=wrap;fontSize=12;fontStyle=0;container=0;pointerEvents=0;collapsible=0;recursiveResize=0;shape=mxgraph.aws4.group;grIcon=mxgraph.aws4.group_region;strokeColor=#147EBA;fillColor=none;verticalAlign=top;align=left;spacingLeft=30;fontColor=#147EBA;dashed=1;" parent="1" vertex="1">
          <mxGeometry x="1320" y="160" width="640" height="1000" as="geometry" />
        </mxCell>
        <mxCell id="ZEOZU6cHf9Xsqpg2laXT-35" value="M-IGW-VA" style="sketch=0;outlineConnect=0;fontColor=#232F3E;gradientColor=none;fillColor=#4D27AA;strokeColor=none;dashed=0;verticalLabelPosition=bottom;verticalAlign=top;align=center;html=1;fontSize=12;fontStyle=0;aspect=fixed;pointerEvents=1;shape=mxgraph.aws4.internet_gateway;" parent="1" vertex="1">
          <mxGeometry x="1335" y="680" width="48.5" height="48.5" as="geometry" />
        </mxCell>
        <mxCell id="ZEOZU6cHf9Xsqpg2laXT-9" value="M-VPC" style="points=[[0,0],[0.25,0],[0.5,0],[0.75,0],[1,0],[1,0.25],[1,0.5],[1,0.75],[1,1],[0.75,1],[0.5,1],[0.25,1],[0,1],[0,0.75],[0,0.5],[0,0.25]];outlineConnect=0;gradientColor=none;html=1;whiteSpace=wrap;fontSize=12;fontStyle=0;container=0;pointerEvents=0;collapsible=0;recursiveResize=0;shape=mxgraph.aws4.group;grIcon=mxgraph.aws4.group_vpc;strokeColor=#248814;fillColor=none;verticalAlign=top;align=left;spacingLeft=30;fontColor=#AAB7B8;dashed=0;" parent="1" vertex="1">
          <mxGeometry x="159" y="200" width="481" height="920.5" as="geometry" />
        </mxCell>
        <mxCell id="S6HyDGeCNXITSf1lsvY5-18" value="M-IGW&lt;br&gt;" style="sketch=0;outlineConnect=0;fontColor=#232F3E;gradientColor=none;fillColor=#4D27AA;strokeColor=none;dashed=0;verticalLabelPosition=bottom;verticalAlign=top;align=center;html=1;fontSize=12;fontStyle=0;aspect=fixed;pointerEvents=1;shape=mxgraph.aws4.internet_gateway;" parent="1" vertex="1">
          <mxGeometry x="655" y="680" width="48.5" height="48.5" as="geometry" />
        </mxCell>
        <mxCell id="ZEOZU6cHf9Xsqpg2laXT-12" value="ap-northeast-2a" style="sketch=0;outlineConnect=0;gradientColor=none;html=1;whiteSpace=wrap;fontSize=12;fontStyle=0;shape=mxgraph.aws4.group;grIcon=mxgraph.aws4.group_availability_zone;strokeColor=#545B64;fillColor=none;verticalAlign=top;align=left;spacingLeft=30;fontColor=#545B64;dashed=1;movable=1;resizable=1;rotatable=1;deletable=1;editable=1;connectable=1;" parent="1" vertex="1">
          <mxGeometry x="199.75" y="240" width="320.25" height="399.5" as="geometry" />
        </mxCell>
        <mxCell id="ZEOZU6cHf9Xsqpg2laXT-19" value="M-PUB-SN-2a" style="points=[[0,0],[0.25,0],[0.5,0],[0.75,0],[1,0],[1,0.25],[1,0.5],[1,0.75],[1,1],[0.75,1],[0.5,1],[0.25,1],[0,1],[0,0.75],[0,0.5],[0,0.25]];outlineConnect=0;gradientColor=none;html=1;whiteSpace=wrap;fontSize=12;fontStyle=0;container=1;pointerEvents=0;collapsible=0;recursiveResize=0;shape=mxgraph.aws4.group;grIcon=mxgraph.aws4.group_security_group;grStroke=0;strokeColor=#248814;fillColor=#E9F3E6;verticalAlign=top;align=left;spacingLeft=30;fontColor=#248814;dashed=0;" parent="1" vertex="1">
          <mxGeometry x="200" y="280" width="280" height="130" as="geometry" />
        </mxCell>
        <mxCell id="ZEOZU6cHf9Xsqpg2laXT-28" value="M-NAT-2a" style="sketch=0;outlineConnect=0;fontColor=#232F3E;gradientColor=none;fillColor=#4D27AA;strokeColor=none;dashed=0;verticalLabelPosition=bottom;verticalAlign=top;align=center;html=1;fontSize=12;fontStyle=0;aspect=fixed;pointerEvents=1;shape=mxgraph.aws4.nat_gateway;" parent="ZEOZU6cHf9Xsqpg2laXT-19" vertex="1">
          <mxGeometry x="40" y="40" width="50" height="50" as="geometry" />
        </mxCell>
        <mxCell id="ZEOZU6cHf9Xsqpg2laXT-21" value="M-PRIV-SN-2a" style="points=[[0,0],[0.25,0],[0.5,0],[0.75,0],[1,0],[1,0.25],[1,0.5],[1,0.75],[1,1],[0.75,1],[0.5,1],[0.25,1],[0,1],[0,0.75],[0,0.5],[0,0.25]];outlineConnect=0;gradientColor=none;html=1;whiteSpace=wrap;fontSize=12;fontStyle=0;container=1;pointerEvents=0;collapsible=0;recursiveResize=0;shape=mxgraph.aws4.group;grIcon=mxgraph.aws4.group_security_group;grStroke=0;strokeColor=#147EBA;fillColor=#E6F2F8;verticalAlign=top;align=left;spacingLeft=30;fontColor=#147EBA;dashed=0;" parent="1" vertex="1">
          <mxGeometry x="200" y="480" width="280" height="130" as="geometry" />
        </mxCell>
        <mxCell id="ZEOZU6cHf9Xsqpg2laXT-36" value="M-PUB-RT-2a" style="sketch=0;outlineConnect=0;fontColor=#232F3E;gradientColor=none;fillColor=#4D27AA;strokeColor=none;dashed=0;verticalLabelPosition=bottom;verticalAlign=top;align=center;html=1;fontSize=12;fontStyle=0;aspect=fixed;pointerEvents=1;shape=mxgraph.aws4.route_table;" parent="1" vertex="1">
          <mxGeometry x="559" y="297.25" width="40.54" height="39.5" as="geometry" />
        </mxCell>
        <mxCell id="S6HyDGeCNXITSf1lsvY5-26" value="" style="edgeStyle=orthogonalEdgeStyle;rounded=0;orthogonalLoop=1;jettySize=auto;html=1;" parent="1" source="ZEOZU6cHf9Xsqpg2laXT-19" target="ZEOZU6cHf9Xsqpg2laXT-36" edge="1">
          <mxGeometry relative="1" as="geometry">
            <Array as="points">
              <mxPoint x="500" y="320" />
              <mxPoint x="500" y="320" />
            </Array>
          </mxGeometry>
        </mxCell>
        <mxCell id="S6HyDGeCNXITSf1lsvY5-21" style="edgeStyle=orthogonalEdgeStyle;rounded=0;orthogonalLoop=1;jettySize=auto;html=1;" parent="1" source="ZEOZU6cHf9Xsqpg2laXT-36" target="ZEOZU6cHf9Xsqpg2laXT-19" edge="1">
          <mxGeometry relative="1" as="geometry">
            <Array as="points">
              <mxPoint x="510" y="320" />
              <mxPoint x="510" y="320" />
            </Array>
          </mxGeometry>
        </mxCell>
        <mxCell id="ZEOZU6cHf9Xsqpg2laXT-37" value="M-PRIV-RT-2a" style="sketch=0;outlineConnect=0;fontColor=#232F3E;gradientColor=none;fillColor=#4D27AA;strokeColor=none;dashed=0;verticalLabelPosition=bottom;verticalAlign=top;align=center;html=1;fontSize=12;fontStyle=0;aspect=fixed;pointerEvents=1;shape=mxgraph.aws4.route_table;" parent="1" vertex="1">
          <mxGeometry x="560.54" y="497.25" width="40.54" height="39.5" as="geometry" />
        </mxCell>
        <mxCell id="ZEOZU6cHf9Xsqpg2laXT-16" value="ap-northeast-2c" style="sketch=0;outlineConnect=0;gradientColor=none;html=1;whiteSpace=wrap;fontSize=12;fontStyle=0;shape=mxgraph.aws4.group;grIcon=mxgraph.aws4.group_availability_zone;strokeColor=#545B64;fillColor=none;verticalAlign=top;align=left;spacingLeft=30;fontColor=#545B64;dashed=1;movable=1;resizable=1;rotatable=1;deletable=1;editable=1;connectable=1;" parent="1" vertex="1">
          <mxGeometry x="199.75" y="680" width="320.25" height="399.5" as="geometry" />
        </mxCell>
        <mxCell id="ZEOZU6cHf9Xsqpg2laXT-38" value="M-PUB-RT-2c" style="sketch=0;outlineConnect=0;fontColor=#232F3E;gradientColor=none;fillColor=#4D27AA;strokeColor=none;dashed=0;verticalLabelPosition=bottom;verticalAlign=top;align=center;html=1;fontSize=12;fontStyle=0;aspect=fixed;pointerEvents=1;shape=mxgraph.aws4.route_table;" parent="1" vertex="1">
          <mxGeometry x="560.54" y="738" width="40.54" height="39.5" as="geometry" />
        </mxCell>
        <mxCell id="ZEOZU6cHf9Xsqpg2laXT-39" value="M-PRIV-RT-2c" style="sketch=0;outlineConnect=0;fontColor=#232F3E;gradientColor=none;fillColor=#4D27AA;strokeColor=none;dashed=0;verticalLabelPosition=bottom;verticalAlign=top;align=center;html=1;fontSize=12;fontStyle=0;aspect=fixed;pointerEvents=1;shape=mxgraph.aws4.route_table;" parent="1" vertex="1">
          <mxGeometry x="560.54" y="940" width="40.54" height="39.5" as="geometry" />
        </mxCell>
        <mxCell id="S6HyDGeCNXITSf1lsvY5-34" value="" style="edgeStyle=orthogonalEdgeStyle;rounded=0;orthogonalLoop=1;jettySize=auto;html=1;" parent="1" edge="1">
          <mxGeometry relative="1" as="geometry">
            <mxPoint x="479.75" y="759" as="sourcePoint" />
            <Array as="points">
              <mxPoint x="489.75" y="759" />
              <mxPoint x="489.75" y="759" />
            </Array>
            <mxPoint x="560.6592221964243" y="759" as="targetPoint" />
          </mxGeometry>
        </mxCell>
        <mxCell id="S6HyDGeCNXITSf1lsvY5-23" style="edgeStyle=orthogonalEdgeStyle;rounded=0;orthogonalLoop=1;jettySize=auto;html=1;" parent="1" edge="1">
          <mxGeometry relative="1" as="geometry">
            <mxPoint x="479.75" y="759" as="targetPoint" />
            <Array as="points">
              <mxPoint x="489.75" y="759" />
              <mxPoint x="489.75" y="759" />
            </Array>
            <mxPoint x="560.6592221964243" y="759" as="sourcePoint" />
          </mxGeometry>
        </mxCell>
        <mxCell id="ZEOZU6cHf9Xsqpg2laXT-40" value="M-PUB-RT-1a" style="sketch=0;outlineConnect=0;fontColor=#232F3E;gradientColor=none;fillColor=#4D27AA;strokeColor=none;dashed=0;verticalLabelPosition=bottom;verticalAlign=top;align=center;html=1;fontSize=12;fontStyle=0;aspect=fixed;pointerEvents=1;shape=mxgraph.aws4.route_table;movable=1;resizable=1;rotatable=1;deletable=1;editable=1;connectable=1;container=0;" parent="1" vertex="1">
          <mxGeometry x="1440" y="297.25" width="40.54" height="39.5" as="geometry" />
        </mxCell>
        <mxCell id="ZEOZU6cHf9Xsqpg2laXT-41" value="M-PRIV-RT-1a" style="sketch=0;outlineConnect=0;fontColor=#232F3E;gradientColor=none;fillColor=#4D27AA;strokeColor=none;dashed=0;verticalLabelPosition=bottom;verticalAlign=top;align=center;html=1;fontSize=12;fontStyle=0;aspect=fixed;pointerEvents=1;shape=mxgraph.aws4.route_table;movable=1;resizable=1;rotatable=1;deletable=1;editable=1;connectable=1;container=0;" parent="1" vertex="1">
          <mxGeometry x="1440" y="500" width="40.54" height="39.5" as="geometry" />
        </mxCell>
        <mxCell id="ZEOZU6cHf9Xsqpg2laXT-42" value="M-PUB-RT-1c" style="sketch=0;outlineConnect=0;fontColor=#232F3E;gradientColor=none;fillColor=#4D27AA;strokeColor=none;dashed=0;verticalLabelPosition=bottom;verticalAlign=top;align=center;html=1;fontSize=12;fontStyle=0;aspect=fixed;pointerEvents=1;shape=mxgraph.aws4.route_table;movable=1;resizable=1;rotatable=1;deletable=1;editable=1;connectable=1;container=0;" parent="1" vertex="1">
          <mxGeometry x="1440" y="737" width="40.54" height="39.5" as="geometry" />
        </mxCell>
        <mxCell id="ZEOZU6cHf9Xsqpg2laXT-43" value="M-PRIV-RT-1c" style="sketch=0;outlineConnect=0;fontColor=#232F3E;gradientColor=none;fillColor=#4D27AA;strokeColor=none;dashed=0;verticalLabelPosition=bottom;verticalAlign=top;align=center;html=1;fontSize=12;fontStyle=0;aspect=fixed;pointerEvents=1;shape=mxgraph.aws4.route_table;movable=1;resizable=1;rotatable=1;deletable=1;editable=1;connectable=1;container=0;" parent="1" vertex="1">
          <mxGeometry x="1440" y="940" width="40.54" height="39.5" as="geometry" />
        </mxCell>
        <mxCell id="S6HyDGeCNXITSf1lsvY5-3" value="M-VPC-VA" style="points=[[0,0],[0.25,0],[0.5,0],[0.75,0],[1,0],[1,0.25],[1,0.5],[1,0.75],[1,1],[0.75,1],[0.5,1],[0.25,1],[0,1],[0,0.75],[0,0.5],[0,0.25]];outlineConnect=0;gradientColor=none;html=1;whiteSpace=wrap;fontSize=12;fontStyle=0;container=0;pointerEvents=0;collapsible=0;recursiveResize=0;shape=mxgraph.aws4.group;grIcon=mxgraph.aws4.group_vpc;strokeColor=#248814;fillColor=none;verticalAlign=top;align=left;spacingLeft=30;fontColor=#AAB7B8;dashed=0;movable=1;resizable=1;rotatable=1;deletable=1;editable=1;connectable=1;" parent="1" vertex="1">
          <mxGeometry x="1400" y="199.75" width="480" height="920.25" as="geometry" />
        </mxCell>
        <mxCell id="S6HyDGeCNXITSf1lsvY5-8" value="M-PRIV-SN-1a" style="points=[[0,0],[0.25,0],[0.5,0],[0.75,0],[1,0],[1,0.25],[1,0.5],[1,0.75],[1,1],[0.75,1],[0.5,1],[0.25,1],[0,1],[0,0.75],[0,0.5],[0,0.25]];outlineConnect=0;gradientColor=none;html=1;whiteSpace=wrap;fontSize=12;fontStyle=0;container=0;pointerEvents=0;collapsible=0;recursiveResize=0;shape=mxgraph.aws4.group;grIcon=mxgraph.aws4.group_security_group;grStroke=0;strokeColor=#147EBA;fillColor=#E6F2F8;verticalAlign=top;align=left;spacingLeft=30;fontColor=#147EBA;dashed=0;movable=1;resizable=1;rotatable=1;deletable=1;editable=1;connectable=1;" parent="1" vertex="1">
          <mxGeometry x="1560" y="480" width="280" height="130" as="geometry" />
        </mxCell>
        <mxCell id="S6HyDGeCNXITSf1lsvY5-9" value="M-PUB-SN-1c" style="points=[[0,0],[0.25,0],[0.5,0],[0.75,0],[1,0],[1,0.25],[1,0.5],[1,0.75],[1,1],[0.75,1],[0.5,1],[0.25,1],[0,1],[0,0.75],[0,0.5],[0,0.25]];outlineConnect=0;gradientColor=none;html=1;whiteSpace=wrap;fontSize=12;fontStyle=0;container=0;pointerEvents=0;collapsible=0;recursiveResize=0;shape=mxgraph.aws4.group;grIcon=mxgraph.aws4.group_security_group;grStroke=0;strokeColor=#248814;fillColor=#E9F3E6;verticalAlign=top;align=left;spacingLeft=30;fontColor=#248814;dashed=0;movable=1;resizable=1;rotatable=1;deletable=1;editable=1;connectable=1;" parent="1" vertex="1">
          <mxGeometry x="1560" y="720" width="280" height="130" as="geometry" />
        </mxCell>
        <mxCell id="S6HyDGeCNXITSf1lsvY5-10" value="M-PRIV-SN-1c" style="points=[[0,0],[0.25,0],[0.5,0],[0.75,0],[1,0],[1,0.25],[1,0.5],[1,0.75],[1,1],[0.75,1],[0.5,1],[0.25,1],[0,1],[0,0.75],[0,0.5],[0,0.25]];outlineConnect=0;gradientColor=none;html=1;whiteSpace=wrap;fontSize=12;fontStyle=0;container=0;pointerEvents=0;collapsible=0;recursiveResize=0;shape=mxgraph.aws4.group;grIcon=mxgraph.aws4.group_security_group;grStroke=0;strokeColor=#147EBA;fillColor=#E6F2F8;verticalAlign=top;align=left;spacingLeft=30;fontColor=#147EBA;dashed=0;movable=1;resizable=1;rotatable=1;deletable=1;editable=1;connectable=1;" parent="1" vertex="1">
          <mxGeometry x="1560" y="920" width="280" height="130" as="geometry" />
        </mxCell>
        <mxCell id="S6HyDGeCNXITSf1lsvY5-11" value="M-NAT-1c" style="sketch=0;outlineConnect=0;fontColor=#232F3E;gradientColor=none;fillColor=#4D27AA;strokeColor=none;dashed=0;verticalLabelPosition=bottom;verticalAlign=top;align=center;html=1;fontSize=12;fontStyle=0;aspect=fixed;pointerEvents=1;shape=mxgraph.aws4.nat_gateway;movable=1;resizable=1;rotatable=1;deletable=1;editable=1;connectable=1;container=0;" parent="1" vertex="1">
          <mxGeometry x="1600" y="760" width="50" height="50" as="geometry" />
        </mxCell>
        <mxCell id="S6HyDGeCNXITSf1lsvY5-6" value="M-PUB-SN-1a" style="points=[[0,0],[0.25,0],[0.5,0],[0.75,0],[1,0],[1,0.25],[1,0.5],[1,0.75],[1,1],[0.75,1],[0.5,1],[0.25,1],[0,1],[0,0.75],[0,0.5],[0,0.25]];outlineConnect=0;gradientColor=none;html=1;whiteSpace=wrap;fontSize=12;fontStyle=0;container=0;pointerEvents=0;collapsible=0;recursiveResize=0;shape=mxgraph.aws4.group;grIcon=mxgraph.aws4.group_security_group;grStroke=0;strokeColor=#248814;fillColor=#E9F3E6;verticalAlign=top;align=left;spacingLeft=30;fontColor=#248814;dashed=0;movable=1;resizable=1;rotatable=1;deletable=1;editable=1;connectable=1;" parent="1" vertex="1">
          <mxGeometry x="1560" y="280" width="280" height="130" as="geometry" />
        </mxCell>
        <mxCell id="S6HyDGeCNXITSf1lsvY5-7" value="M-NAT-1a" style="sketch=0;outlineConnect=0;fontColor=#232F3E;gradientColor=none;fillColor=#4D27AA;strokeColor=none;dashed=0;verticalLabelPosition=bottom;verticalAlign=top;align=center;html=1;fontSize=12;fontStyle=0;aspect=fixed;pointerEvents=1;shape=mxgraph.aws4.nat_gateway;movable=1;resizable=1;rotatable=1;deletable=1;editable=1;connectable=1;container=0;" parent="1" vertex="1">
          <mxGeometry x="1600" y="320" width="50" height="50" as="geometry" />
        </mxCell>
        <mxCell id="S6HyDGeCNXITSf1lsvY5-46" value="서울 리전" style="points=[[0,0],[0.25,0],[0.5,0],[0.75,0],[1,0],[1,0.25],[1,0.5],[1,0.75],[1,1],[0.75,1],[0.5,1],[0.25,1],[0,1],[0,0.75],[0,0.5],[0,0.25]];outlineConnect=0;gradientColor=none;html=1;whiteSpace=wrap;fontSize=12;fontStyle=0;container=0;pointerEvents=0;collapsible=0;recursiveResize=0;shape=mxgraph.aws4.group;grIcon=mxgraph.aws4.group_region;strokeColor=#147EBA;fillColor=none;verticalAlign=top;align=left;spacingLeft=30;fontColor=#147EBA;dashed=1;" parent="1" vertex="1">
          <mxGeometry x="80" y="160" width="640" height="1000" as="geometry" />
        </mxCell>
        <mxCell id="ZEOZU6cHf9Xsqpg2laXT-23" value="M-PRIV-SN-2c" style="points=[[0,0],[0.25,0],[0.5,0],[0.75,0],[1,0],[1,0.25],[1,0.5],[1,0.75],[1,1],[0.75,1],[0.5,1],[0.25,1],[0,1],[0,0.75],[0,0.5],[0,0.25]];outlineConnect=0;gradientColor=none;html=1;whiteSpace=wrap;fontSize=12;fontStyle=0;container=1;pointerEvents=0;collapsible=0;recursiveResize=0;shape=mxgraph.aws4.group;grIcon=mxgraph.aws4.group_security_group;grStroke=0;strokeColor=#147EBA;fillColor=#E6F2F8;verticalAlign=top;align=left;spacingLeft=30;fontColor=#147EBA;dashed=0;" parent="1" vertex="1">
          <mxGeometry x="199.75" y="920" width="280" height="130" as="geometry" />
        </mxCell>
        <mxCell id="S6HyDGeCNXITSf1lsvY5-36" value="M-PUB-SN-2c" style="points=[[0,0],[0.25,0],[0.5,0],[0.75,0],[1,0],[1,0.25],[1,0.5],[1,0.75],[1,1],[0.75,1],[0.5,1],[0.25,1],[0,1],[0,0.75],[0,0.5],[0,0.25]];outlineConnect=0;gradientColor=none;html=1;whiteSpace=wrap;fontSize=12;fontStyle=0;container=1;pointerEvents=0;collapsible=0;recursiveResize=0;shape=mxgraph.aws4.group;grIcon=mxgraph.aws4.group_security_group;grStroke=0;strokeColor=#248814;fillColor=#E9F3E6;verticalAlign=top;align=left;spacingLeft=30;fontColor=#248814;dashed=0;" parent="1" vertex="1">
          <mxGeometry x="199.75" y="720" width="280" height="130" as="geometry" />
        </mxCell>
        <mxCell id="S6HyDGeCNXITSf1lsvY5-37" value="M-NAT-2c" style="sketch=0;outlineConnect=0;fontColor=#232F3E;gradientColor=none;fillColor=#4D27AA;strokeColor=none;dashed=0;verticalLabelPosition=bottom;verticalAlign=top;align=center;html=1;fontSize=12;fontStyle=0;aspect=fixed;pointerEvents=1;shape=mxgraph.aws4.nat_gateway;" parent="S6HyDGeCNXITSf1lsvY5-36" vertex="1">
          <mxGeometry x="20" y="40.25" width="49.5" height="49.5" as="geometry" />
        </mxCell>
        <mxCell id="-kjZyVQrHDy4FyDlELMd-20" value="" style="endArrow=classic;startArrow=classic;html=1;rounded=0;" parent="1" edge="1">
          <mxGeometry width="50" height="50" relative="1" as="geometry">
            <mxPoint x="479.75" y="519" as="sourcePoint" />
            <mxPoint x="560" y="519" as="targetPoint" />
          </mxGeometry>
        </mxCell>
        <mxCell id="-kjZyVQrHDy4FyDlELMd-37" value="" style="endArrow=classic;html=1;rounded=0;" parent="1" target="S6HyDGeCNXITSf1lsvY5-18" edge="1">
          <mxGeometry width="50" height="50" relative="1" as="geometry">
            <mxPoint x="680" y="320" as="sourcePoint" />
            <mxPoint x="680" y="612.75" as="targetPoint" />
          </mxGeometry>
        </mxCell>
        <mxCell id="-kjZyVQrHDy4FyDlELMd-39" value="" style="endArrow=classic;html=1;rounded=0;" parent="1" edge="1">
          <mxGeometry width="50" height="50" relative="1" as="geometry">
            <mxPoint x="679.54" y="320" as="sourcePoint" />
            <mxPoint x="599.54" y="320" as="targetPoint" />
          </mxGeometry>
        </mxCell>
        <mxCell id="-kjZyVQrHDy4FyDlELMd-45" value="" style="endArrow=classic;html=1;rounded=0;entryX=0;entryY=0.308;entryDx=0;entryDy=0;entryPerimeter=0;" parent="1" target="S6HyDGeCNXITSf1lsvY5-6" edge="1">
          <mxGeometry width="50" height="50" relative="1" as="geometry">
            <mxPoint x="1470" y="320" as="sourcePoint" />
            <mxPoint x="1520" y="270" as="targetPoint" />
          </mxGeometry>
        </mxCell>
        <mxCell id="-kjZyVQrHDy4FyDlELMd-47" value="" style="endArrow=classic;html=1;rounded=0;" parent="1" edge="1">
          <mxGeometry width="50" height="50" relative="1" as="geometry">
            <mxPoint x="1560" y="320" as="sourcePoint" />
            <mxPoint x="1480" y="320" as="targetPoint" />
          </mxGeometry>
        </mxCell>
        <mxCell id="-kjZyVQrHDy4FyDlELMd-50" value="" style="endArrow=classic;html=1;rounded=0;" parent="1" edge="1">
          <mxGeometry width="50" height="50" relative="1" as="geometry">
            <mxPoint x="1480" y="520" as="sourcePoint" />
            <mxPoint x="1560" y="520" as="targetPoint" />
          </mxGeometry>
        </mxCell>
        <mxCell id="-kjZyVQrHDy4FyDlELMd-52" value="" style="endArrow=classic;html=1;rounded=0;" parent="1" target="ZEOZU6cHf9Xsqpg2laXT-41" edge="1">
          <mxGeometry width="50" height="50" relative="1" as="geometry">
            <mxPoint x="1560" y="520" as="sourcePoint" />
            <mxPoint x="1610" y="470" as="targetPoint" />
          </mxGeometry>
        </mxCell>
        <mxCell id="-kjZyVQrHDy4FyDlELMd-53" style="edgeStyle=orthogonalEdgeStyle;rounded=0;orthogonalLoop=1;jettySize=auto;html=1;" parent="1" edge="1">
          <mxGeometry relative="1" as="geometry">
            <mxPoint x="478.75" y="960.7647058823529" as="targetPoint" />
            <Array as="points">
              <mxPoint x="488.75" y="961" />
              <mxPoint x="488.75" y="961" />
            </Array>
            <mxPoint x="559.6592221964243" y="960.7647058823529" as="sourcePoint" />
          </mxGeometry>
        </mxCell>
        <mxCell id="-kjZyVQrHDy4FyDlELMd-55" value="" style="edgeStyle=orthogonalEdgeStyle;rounded=0;orthogonalLoop=1;jettySize=auto;html=1;" parent="1" edge="1">
          <mxGeometry relative="1" as="geometry">
            <mxPoint x="483.75" y="960" as="sourcePoint" />
            <Array as="points">
              <mxPoint x="493.75" y="960" />
              <mxPoint x="493.75" y="960" />
            </Array>
            <mxPoint x="564.6592221964243" y="960" as="targetPoint" />
          </mxGeometry>
        </mxCell>
        <mxCell id="-kjZyVQrHDy4FyDlELMd-56" value="" style="endArrow=classic;html=1;rounded=0;" parent="1" edge="1">
          <mxGeometry width="50" height="50" relative="1" as="geometry">
            <mxPoint x="1561" y="759" as="sourcePoint" />
            <mxPoint x="1481.4207778035752" y="758.8005133305012" as="targetPoint" />
          </mxGeometry>
        </mxCell>
        <mxCell id="-kjZyVQrHDy4FyDlELMd-61" value="" style="endArrow=classic;html=1;rounded=0;" parent="1" edge="1">
          <mxGeometry width="50" height="50" relative="1" as="geometry">
            <mxPoint x="1561.9999999999995" y="959.9999999999998" as="sourcePoint" />
            <mxPoint x="1482.4207778035752" y="959.8005133305012" as="targetPoint" />
          </mxGeometry>
        </mxCell>
        <mxCell id="-kjZyVQrHDy4FyDlELMd-62" value="" style="endArrow=classic;html=1;rounded=0;" parent="1" edge="1">
          <mxGeometry width="50" height="50" relative="1" as="geometry">
            <mxPoint x="1482" y="960" as="sourcePoint" />
            <mxPoint x="1562" y="960" as="targetPoint" />
          </mxGeometry>
        </mxCell>
        <mxCell id="-kjZyVQrHDy4FyDlELMd-63" value="" style="endArrow=classic;html=1;rounded=0;" parent="1" edge="1">
          <mxGeometry width="50" height="50" relative="1" as="geometry">
            <mxPoint x="1483" y="759" as="sourcePoint" />
            <mxPoint x="1563" y="759" as="targetPoint" />
          </mxGeometry>
        </mxCell>
        <mxCell id="-kjZyVQrHDy4FyDlELMd-64" value="" style="endArrow=classic;html=1;rounded=0;" parent="1" edge="1">
          <mxGeometry width="50" height="50" relative="1" as="geometry">
            <mxPoint x="1360" y="320" as="sourcePoint" />
            <mxPoint x="1440" y="320" as="targetPoint" />
          </mxGeometry>
        </mxCell>
        <mxCell id="-kjZyVQrHDy4FyDlELMd-65" value="" style="endArrow=classic;html=1;rounded=0;" parent="1" target="ZEOZU6cHf9Xsqpg2laXT-35" edge="1">
          <mxGeometry width="50" height="50" relative="1" as="geometry">
            <mxPoint x="1358.66" y="320" as="sourcePoint" />
            <mxPoint x="1358.66" y="610" as="targetPoint" />
          </mxGeometry>
        </mxCell>
        <mxCell id="-kjZyVQrHDy4FyDlELMd-66" value="" style="endArrow=none;html=1;rounded=0;" parent="1" edge="1">
          <mxGeometry width="50" height="50" relative="1" as="geometry">
            <mxPoint x="1383.5" y="703.66" as="sourcePoint" />
            <mxPoint x="1460" y="704" as="targetPoint" />
          </mxGeometry>
        </mxCell>
        <mxCell id="-kjZyVQrHDy4FyDlELMd-67" value="" style="endArrow=none;html=1;rounded=0;" parent="1" edge="1">
          <mxGeometry width="50" height="50" relative="1" as="geometry">
            <mxPoint x="580" y="704" as="sourcePoint" />
            <mxPoint x="654.9999999999995" y="703.6599999999999" as="targetPoint" />
          </mxGeometry>
        </mxCell>
        <mxCell id="-kjZyVQrHDy4FyDlELMd-68" value="" style="endArrow=classic;html=1;rounded=0;" parent="1" edge="1">
          <mxGeometry width="50" height="50" relative="1" as="geometry">
            <mxPoint x="580" y="703" as="sourcePoint" />
            <mxPoint x="580.22" y="741" as="targetPoint" />
          </mxGeometry>
        </mxCell>
        <mxCell id="-kjZyVQrHDy4FyDlELMd-70" value="" style="endArrow=classic;html=1;rounded=0;" parent="1" edge="1">
          <mxGeometry width="50" height="50" relative="1" as="geometry">
            <mxPoint x="1459.6799999999998" y="703" as="sourcePoint" />
            <mxPoint x="1459.9" y="741" as="targetPoint" />
          </mxGeometry>
        </mxCell>
        <mxCell id="-kjZyVQrHDy4FyDlELMd-72" value="" style="endArrow=classic;html=1;rounded=0;" parent="1" edge="1">
          <mxGeometry width="50" height="50" relative="1" as="geometry">
            <mxPoint x="703.5" y="707.25" as="sourcePoint" />
            <mxPoint x="1335" y="707.25" as="targetPoint" />
          </mxGeometry>
        </mxCell>
        <mxCell id="-kjZyVQrHDy4FyDlELMd-73" value="" style="endArrow=classic;html=1;rounded=0;" parent="1" edge="1">
          <mxGeometry width="50" height="50" relative="1" as="geometry">
            <mxPoint x="1335" y="706.25" as="sourcePoint" />
            <mxPoint x="703.5" y="706.25" as="targetPoint" />
          </mxGeometry>
        </mxCell>
        <mxCell id="-kjZyVQrHDy4FyDlELMd-74" value="" style="sketch=0;outlineConnect=0;fontColor=#232F3E;gradientColor=none;fillColor=#4D27AA;strokeColor=none;dashed=0;verticalLabelPosition=bottom;verticalAlign=top;align=center;html=1;fontSize=12;fontStyle=0;aspect=fixed;pointerEvents=1;shape=mxgraph.aws4.peering;" parent="1" vertex="1">
          <mxGeometry x="997.5" y="1100" width="45" height="45" as="geometry" />
        </mxCell>
        <mxCell id="-kjZyVQrHDy4FyDlELMd-78" value="" style="endArrow=classic;html=1;rounded=0;" parent="1" edge="1" source="-kjZyVQrHDy4FyDlELMd-74">
          <mxGeometry width="50" height="50" relative="1" as="geometry">
            <mxPoint x="970" y="1120" as="sourcePoint" />
            <mxPoint x="720" y="1120" as="targetPoint" />
          </mxGeometry>
        </mxCell>
        <mxCell id="-kjZyVQrHDy4FyDlELMd-79" value="" style="endArrow=classic;html=1;rounded=0;entryX=0;entryY=0.96;entryDx=0;entryDy=0;entryPerimeter=0;" parent="1" target="ZEOZU6cHf9Xsqpg2laXT-5" edge="1" source="-kjZyVQrHDy4FyDlELMd-74">
          <mxGeometry width="50" height="50" relative="1" as="geometry">
            <mxPoint x="1070" y="1120" as="sourcePoint" />
            <mxPoint x="1310" y="1120" as="targetPoint" />
          </mxGeometry>
        </mxCell>
        <mxCell id="-kjZyVQrHDy4FyDlELMd-82" value="ROUTE &lt;br&gt;53" style="sketch=0;points=[[0,0,0],[0.25,0,0],[0.5,0,0],[0.75,0,0],[1,0,0],[0,1,0],[0.25,1,0],[0.5,1,0],[0.75,1,0],[1,1,0],[0,0.25,0],[0,0.5,0],[0,0.75,0],[1,0.25,0],[1,0.5,0],[1,0.75,0]];outlineConnect=0;fontColor=#232F3E;gradientColor=#945DF2;gradientDirection=north;fillColor=#5A30B5;strokeColor=#ffffff;dashed=0;verticalLabelPosition=bottom;verticalAlign=top;align=center;html=1;fontSize=12;fontStyle=0;aspect=fixed;shape=mxgraph.aws4.resourceIcon;resIcon=mxgraph.aws4.route_53;" parent="1" vertex="1">
          <mxGeometry x="1000.5" y="320" width="39" height="39" as="geometry" />
        </mxCell>
        <mxCell id="-kjZyVQrHDy4FyDlELMd-83" value="CLOUDFRONT" style="sketch=0;points=[[0,0,0],[0.25,0,0],[0.5,0,0],[0.75,0,0],[1,0,0],[0,1,0],[0.25,1,0],[0.5,1,0],[0.75,1,0],[1,1,0],[0,0.25,0],[0,0.5,0],[0,0.75,0],[1,0.25,0],[1,0.5,0],[1,0.75,0]];outlineConnect=0;fontColor=#232F3E;gradientColor=#945DF2;gradientDirection=north;fillColor=#5A30B5;strokeColor=#ffffff;dashed=0;verticalLabelPosition=bottom;verticalAlign=top;align=center;html=1;fontSize=12;fontStyle=0;aspect=fixed;shape=mxgraph.aws4.resourceIcon;resIcon=mxgraph.aws4.cloudfront;" parent="1" vertex="1">
          <mxGeometry x="1000.5" y="521" width="39" height="39" as="geometry" />
        </mxCell>
        <mxCell id="-kjZyVQrHDy4FyDlELMd-84" value="" style="endArrow=none;html=1;rounded=0;exitX=0.5;exitY=0;exitDx=0;exitDy=0;exitPerimeter=0;" parent="1" source="-kjZyVQrHDy4FyDlELMd-83" edge="1" target="-kjZyVQrHDy4FyDlELMd-82">
          <mxGeometry width="50" height="50" relative="1" as="geometry">
            <mxPoint x="1020" y="460" as="sourcePoint" />
            <mxPoint x="1020" y="360" as="targetPoint" />
          </mxGeometry>
        </mxCell>
        <mxCell id="-kjZyVQrHDy4FyDlELMd-86" value="" style="endArrow=none;html=1;rounded=0;" parent="1" edge="1">
          <mxGeometry width="50" height="50" relative="1" as="geometry">
            <mxPoint x="1020" y="710" as="sourcePoint" />
            <mxPoint x="1020" y="560" as="targetPoint" />
          </mxGeometry>
        </mxCell>
      </root>
    </mxGraphModel>
  </diagram>
</mxfile>
